<?xml version="1.0" standalone="no"?>
<!DOCTYPE svg PUBLIC "-//W3C//DTD SVG 20010904//EN"
 "http://www.w3.org/TR/2001/REC-SVG-20010904/DTD/svg10.dtd">
<svg version="1.0" xmlns="http://www.w3.org/2000/svg"
 width="289.000000pt" height="289.000000pt" viewBox="0 0 289.000000 289.000000"
 preserveAspectRatio="xMidYMid meet">
<metadata>
Created by potrace 1.11, written by Peter Selinger 2001-2013
</metadata>
<g transform="translate(0.000000,289.000000) scale(0.100000,-0.100000)"
fill="#000000" stroke="none">
<path d="M1300 2812 c0 -5 -6 -9 -13 -9 -7 0 -25 -3 -41 -7 -16 -4 -25 -3 -22
3 3 5 -3 7 -14 4 -11 -3 -18 -9 -15 -12 2 -4 -2 -8 -10 -8 -8 0 -12 3 -10 7 2
4 -3 7 -11 7 -8 0 -13 -6 -10 -13 5 -13 -30 -8 -51 8 -7 6 -14 4 -19 -3 -4 -8
-3 -9 4 -5 7 4 12 3 12 -2 0 -15 -28 -23 -32 -10 -3 8 -11 7 -26 -4 -12 -8
-19 -19 -14 -24 4 -4 0 -3 -8 2 -21 16 -52 14 -46 -3 5 -11 1 -11 -15 -2 -13
7 -19 7 -15 1 3 -6 2 -13 -4 -17 -5 -3 -10 -1 -10 4 0 6 -5 11 -11 11 -6 0 -8
-7 -5 -16 5 -14 4 -15 -8 -5 -10 8 -16 9 -21 1 -3 -6 -12 -7 -18 -3 -9 5 -9 3
0 -8 10 -12 8 -15 -7 -15 -10 0 -16 5 -14 11 3 5 -1 2 -10 -9 -8 -10 -19 -15
-25 -12 -5 4 -13 1 -17 -5 -4 -7 -3 -9 3 -6 6 4 14 0 17 -9 3 -8 2 -12 -4 -9
-6 3 -10 1 -10 -4 0 -6 -5 -11 -11 -11 -5 0 -7 6 -3 13 4 7 3 9 -2 4 -9 -9
-10 -13 -13 -42 0 -8 -6 -15 -12 -15 -5 0 -7 5 -3 12 4 6 3 8 -4 4 -6 -3 -9
-15 -7 -26 2 -11 1 -19 -3 -19 -19 3 -23 -2 -13 -15 10 -12 9 -13 -7 -9 -16 4
-19 0 -17 -20 2 -20 -1 -24 -13 -20 -10 5 -13 3 -8 -6 5 -8 3 -11 -7 -9 -9 2
-15 -1 -14 -7 1 -5 5 -9 8 -8 3 1 6 -4 6 -12 0 -8 -4 -12 -9 -9 -11 7 -38 -14
-38 -30 0 -6 5 -4 10 4 5 8 10 10 10 4 0 -6 -10 -19 -22 -28 -13 -9 -17 -14
-11 -11 8 4 11 1 7 -9 -3 -9 -11 -13 -16 -10 -6 4 -7 -2 -3 -16 5 -15 4 -20
-4 -16 -6 4 -11 0 -11 -8 0 -9 -4 -16 -9 -16 -5 0 -12 -7 -15 -16 -3 -8 -2
-12 4 -9 6 3 10 1 10 -4 0 -6 -5 -11 -11 -11 -6 0 -8 -7 -5 -16 3 -8 2 -12 -4
-9 -5 3 -14 -5 -21 -17 -12 -22 -11 -22 6 -8 17 13 18 13 10 0 -4 -8 -15 -24
-24 -34 -9 -11 -10 -16 -3 -12 6 4 12 2 12 -3 0 -6 -8 -11 -17 -11 -15 0 -15
-2 -4 -9 13 -8 13 -12 1 -26 -12 -14 -12 -18 1 -27 11 -8 11 -9 -4 -4 -20 6
-22 -4 -5 -23 11 -11 10 -12 0 -6 -8 4 -13 2 -11 -6 3 -28 -1 -40 -13 -33 -7
4 -8 3 -4 -5 4 -6 12 -9 17 -6 5 4 9 1 9 -4 0 -6 -6 -11 -12 -11 -10 0 -9 -3
1 -9 9 -6 10 -11 2 -15 -14 -9 -14 -26 0 -26 5 0 7 5 3 12 -5 7 -3 8 5 3 9 -5
6 -14 -11 -32 -13 -14 -17 -23 -9 -21 10 2 15 -8 17 -35 2 -22 -1 -35 -7 -32
-5 4 -9 2 -9 -3 0 -6 8 -13 18 -17 16 -6 16 -7 -2 -21 -11 -8 -14 -14 -7 -14
7 0 11 -8 9 -17 -1 -10 1 -24 6 -32 6 -9 5 -12 -1 -8 -6 4 -14 0 -17 -9 -5
-12 -2 -15 11 -10 16 6 15 5 -1 -13 -11 -12 -14 -21 -7 -26 8 -4 8 -13 -1 -28
-11 -21 -10 -21 8 -7 18 15 18 14 0 -14 -10 -16 -12 -25 -5 -21 9 6 11 3 6 -8
-3 -9 -2 -19 3 -22 6 -4 3 -19 -7 -38 -16 -31 -16 -32 3 -17 18 15 18 14 0
-14 -10 -16 -13 -25 -7 -22 15 10 14 -7 -1 -23 -10 -11 -10 -13 -1 -7 8 5 13
1 13 -9 0 -9 -4 -14 -8 -11 -5 3 -9 -1 -9 -10 0 -10 7 -12 20 -8 17 5 18 4 6
-9 -8 -8 -17 -13 -20 -11 -3 2 -6 -3 -6 -11 0 -8 7 -15 14 -15 8 0 11 -5 8
-10 -4 -6 -10 -8 -14 -6 -4 3 -8 -1 -8 -9 0 -8 3 -12 7 -10 3 2 6 -18 6 -44
-1 -39 2 -47 14 -43 13 5 13 3 1 -11 -13 -16 -8 -22 13 -18 5 1 3 -5 -4 -14
-7 -9 -9 -15 -4 -14 17 4 44 -13 44 -27 0 -8 5 -14 11 -14 5 0 7 5 3 12 -4 7
-3 8 5 4 9 -6 9 -11 -1 -24 -11 -13 -10 -15 4 -9 11 4 17 2 15 -6 -1 -7 3 -11
10 -10 7 2 10 -4 7 -12 -4 -8 -11 -12 -18 -8 -7 4 -7 1 1 -9 7 -8 10 -18 6
-21 -3 -4 -2 -7 4 -7 14 0 9 -43 -5 -48 -7 -2 -9 -9 -5 -15 4 -6 0 -8 -11 -4
-14 6 -15 3 -6 -13 6 -11 7 -20 3 -19 -21 4 -33 -2 -33 -16 0 -8 -5 -15 -11
-15 -5 0 -7 -5 -3 -12 5 -8 2 -9 -10 -5 -10 4 -15 3 -11 -3 3 -6 -1 -13 -10
-16 -13 -6 -14 -8 -3 -15 10 -7 9 -9 -4 -9 -20 0 -42 -35 -32 -52 4 -7 3 -8
-4 -4 -7 4 -12 1 -12 -7 0 -8 -7 -18 -16 -21 -8 -3 -12 -10 -9 -16 3 -5 0 -7
-8 -4 -8 3 -18 0 -22 -5 -3 -6 -12 -8 -18 -4 -7 4 -6 -1 2 -10 12 -15 12 -17
-3 -11 -9 4 -16 1 -16 -6 0 -10 -3 -10 -14 -1 -11 9 -18 6 -36 -16 -12 -15
-19 -21 -15 -13 4 9 0 7 -9 -4 -8 -10 -19 -15 -25 -11 -7 3 -8 0 -5 -9 3 -9
11 -13 17 -9 6 3 7 1 3 -6 -4 -6 -11 -9 -15 -6 -5 2 -17 -3 -27 -11 -10 -9
-12 -12 -4 -8 12 7 13 5 3 -8 -7 -8 -9 -19 -5 -24 4 -4 -2 -2 -12 6 -11 8 -17
10 -13 3 4 -6 3 -14 -3 -18 -6 -4 -7 -11 -4 -17 4 -7 2 -8 -5 -4 -6 4 -8 12
-5 18 5 7 2 8 -5 4 -7 -5 -10 -15 -7 -25 5 -12 2 -11 -9 3 -8 11 -15 14 -15 7
0 -7 -5 -9 -12 -5 -8 5 -9 2 -4 -11 6 -16 4 -16 -10 -4 -14 11 -18 11 -29 -4
-6 -9 -15 -14 -18 -11 -3 3 -18 -3 -33 -13 -17 -11 -25 -13 -20 -5 7 11 4 12
-13 3 -20 -11 -21 -17 -21 -246 l0 -235 1445 0 1445 0 0 100 c0 60 -4 100 -10
100 -5 0 -10 8 -10 18 0 14 -2 15 -10 2 -8 -12 -10 -12 -10 -1 0 8 -3 11 -7 8
-3 -4 -16 1 -27 10 -20 17 -20 17 -7 0 12 -15 12 -17 -5 -11 -10 4 -24 13 -30
20 -6 7 -23 15 -38 17 -16 2 -35 12 -43 23 -7 10 -21 19 -31 19 -9 0 -16 5
-15 11 1 6 -4 11 -12 11 -8 0 -12 -4 -9 -9 3 -4 0 -8 -5 -8 -6 0 -11 7 -11 16
0 8 -5 12 -10 9 -6 -3 -13 1 -16 10 -6 13 -8 14 -15 3 -7 -10 -9 -10 -9 0 0 6
-5 12 -11 12 -5 0 -7 -6 -3 -12 4 -7 -6 -2 -22 12 -16 14 -30 28 -32 33 -2 4
-7 5 -12 2 -5 -3 -16 2 -24 11 -9 9 -23 13 -31 10 -9 -3 -12 0 -8 10 4 11 0
15 -13 12 -12 -2 -18 2 -16 10 2 9 -2 11 -10 6 -17 -11 -38 -14 -37 -6 3 19
-2 32 -12 32 -5 0 -8 -4 -4 -9 3 -5 1 -13 -5 -16 -6 -4 -10 -3 -9 2 4 21 -2
43 -12 43 -5 0 -8 -4 -4 -9 3 -5 0 -13 -6 -17 -7 -4 -9 -3 -6 3 8 14 -32 46
-49 39 -8 -3 -13 -2 -11 2 2 4 -4 15 -15 25 -12 11 -18 13 -18 5 -1 -7 -6 -3
-13 10 -10 18 -15 20 -26 10 -11 -11 -12 -9 -6 12 3 14 3 21 -2 15 -11 -14
-33 -17 -33 -4 0 5 -5 7 -10 4 -6 -4 -9 -1 -8 7 2 7 -3 12 -9 10 -7 -1 -13 4
-13 12 0 8 -6 16 -12 18 -15 5 -17 40 -3 50 6 4 -1 8 -15 9 -14 0 -19 3 -12 6
6 2 9 9 6 15 -3 5 3 19 14 31 20 21 22 25 22 48 0 5 4 8 9 4 5 -3 12 -1 15 3
6 10 36 9 54 -2 7 -4 12 -2 12 4 0 6 5 8 12 4 7 -5 8 -3 3 5 -4 8 1 21 14 32
18 17 27 44 22 72 0 4 5 7 11 7 9 0 8 4 -2 11 -12 8 -12 12 -2 16 9 3 10 9 2
18 -13 16 -2 47 14 38 6 -3 8 -3 4 2 -4 4 -2 15 5 23 10 13 9 14 -3 7 -12 -7
-13 -6 -3 6 10 12 10 18 0 28 -9 10 -9 11 4 6 11 -4 15 0 14 14 -1 11 -4 24
-8 27 -4 4 1 16 10 27 13 15 14 18 3 12 -13 -8 -13 -6 -2 8 8 9 11 21 7 27 -3
5 -1 10 6 10 7 0 9 3 6 7 -4 3 -2 12 4 20 9 10 8 13 -2 13 -10 1 -8 4 4 11 13
8 15 14 7 30 -8 13 -8 19 0 19 6 0 8 5 5 10 -4 6 -1 18 7 27 9 12 9 15 1 9 -9
-5 -11 -2 -7 8 3 9 10 13 15 10 5 -3 6 2 3 11 -4 8 0 23 7 32 12 14 12 16 -1
8 -12 -7 -13 -6 -4 6 6 8 12 21 12 29 1 8 2 29 3 45 1 17 -1 41 -6 54 -4 14
-3 21 2 18 5 -3 7 7 5 24 -3 19 0 29 9 29 8 0 6 5 -6 13 -14 11 -15 16 -5 22
9 6 11 4 5 -5 -6 -9 -4 -11 4 -6 7 5 10 14 7 22 -3 8 0 14 7 14 7 0 4 5 -5 10
-15 9 -15 13 -3 37 9 18 11 32 4 44 -7 13 -5 19 9 22 15 4 14 5 -2 6 -20 1
-20 1 0 17 10 8 14 13 8 10 -15 -7 -27 36 -13 45 8 5 8 8 1 13 -6 4 -8 14 -5
23 4 10 2 14 -5 9 -7 -4 -8 2 -2 24 5 16 5 29 2 29 -4 -1 -14 -1 -22 0 -13 1
-13 3 -1 10 11 7 10 15 -10 42 -13 19 -22 42 -21 51 2 10 -2 18 -9 18 -8 0 -7
5 2 17 10 11 10 14 2 9 -9 -5 -13 0 -13 14 0 12 -4 19 -9 16 -4 -3 -7 6 -5 19
1 14 -3 25 -9 25 -7 0 -5 5 3 10 12 8 10 10 -10 10 -20 0 -22 2 -10 10 12 8
12 10 1 10 -11 0 -11 3 -1 15 11 13 10 14 -4 9 -12 -4 -16 0 -16 16 0 11 -4
19 -8 16 -7 -4 -12 22 -15 71 0 10 -4 10 -16 1 -9 -7 -13 -8 -9 -4 4 5 2 16
-5 24 -10 13 -9 14 2 8 9 -6 8 -1 -3 16 -9 14 -13 27 -10 30 3 4 -4 9 -15 13
-12 3 -19 10 -16 14 6 11 -30 53 -39 44 -3 -3 -6 1 -6 10 0 10 -5 17 -11 17
-5 0 -7 6 -3 13 4 6 3 9 -1 4 -5 -4 -20 3 -33 15 -14 13 -22 17 -17 10 6 -11
3 -12 -14 -3 -11 7 -21 16 -21 22 0 6 -4 8 -9 5 -14 -9 -42 5 -34 18 3 6 3 8
-2 4 -4 -4 -15 -3 -22 4 -11 9 -17 9 -24 -3 -7 -11 -9 -11 -9 4 0 10 -8 17
-20 17 -11 0 -20 7 -20 16 0 8 -5 12 -10 9 -6 -4 -7 -12 -3 -18 3 -7 -3 -4
-14 6 -11 9 -27 17 -36 17 -9 0 -17 3 -17 8 0 4 -10 8 -23 9 -40 4 -57 9 -69
21 -7 7 -17 8 -28 2 -9 -5 -22 -5 -30 0 -7 4 -19 6 -27 3 -7 -3 -21 -2 -30 2
-28 12 -44 14 -37 4 3 -5 0 -9 -5 -9 -6 0 -11 6 -11 14 0 11 -7 13 -30 6 -19
-5 -28 -5 -25 1 9 13 -9 11 -24 -3 -10 -11 -11 -9 -6 7 6 19 6 19 -8 3 -18
-22 -28 -23 -20 -2 6 15 4 15 -19 0 -24 -15 -27 -16 -42 -1 -9 9 -16 12 -16 7z
m755 -1983 c-4 -5 -12 -9 -18 -8 -9 0 -8 2 1 6 6 2 9 10 6 15 -4 7 -2 8 5 4 6
-4 9 -12 6 -17z m-1705 -99 c0 -5 -5 -10 -11 -10 -5 0 -7 5 -4 10 3 6 8 10 11
10 2 0 4 -4 4 -10z"/>
<path d="M490 1569 c0 -5 5 -7 10 -4 6 3 10 8 10 11 0 2 -4 4 -10 4 -5 0 -10
-5 -10 -11z"/>
</g>
</svg>
